<?xml version="1.0" encoding="UTF-8"?>
<svg id="Camada_1" xmlns="http://www.w3.org/2000/svg" xmlns:xlink="http://www.w3.org/1999/xlink" version="1.1" viewBox="0 0 74.8 9.5">
  <!-- Generator: Adobe Illustrator 29.1.0, SVG Export Plug-In . SVG Version: 2.1.0 Build 142)  -->
  <defs>
    <style>
      .st0 {
        fill: none;
      }

      .st1 {
        fill: #b4b4b4;
      }

      .st2 {
        clip-path: url(#clippath-1);
      }

      .st3 {
        clip-path: url(#clippath-3);
      }

      .st4 {
        clip-path: url(#clippath-4);
      }

      .st5 {
        clip-path: url(#clippath-2);
      }

      .st6 {
        clip-path: url(#clippath);
      }
    </style>
    <clipPath id="clippath">
      <rect class="st0" x="42.7" y="3.4" width="3.9" height="3.9"/>
    </clipPath>
    <clipPath id="clippath-1">
      <circle class="st0" cx="44.7" cy="5.3" r="1.9"/>
    </clipPath>
    <clipPath id="clippath-2">
      <rect class="st0" x="42.2" y="2.8" width="4.4" height="5"/>
    </clipPath>
    <clipPath id="clippath-3">
      <rect class="st0" x="42.7" y="3.4" width="3.9" height="3.9"/>
    </clipPath>
    <clipPath id="clippath-4">
      <circle class="st0" cx="44.7" cy="5.3" r="1.9" transform="translate(35 49.2) rotate(-84.3)"/>
    </clipPath>
  </defs>
  <path d="M6,1.2v6.4h-1.3v-.5c-.3.4-.8.6-1.4.6s-.8,0-1.2-.3c-.4-.2-.6-.5-.8-.8-.2-.4-.3-.8-.3-1.3s.1-.9.3-1.2c.2-.4.5-.6.8-.8.4-.2.8-.3,1.2-.3s1,.2,1.4.6V1.2h1.3ZM3.5,6.6c.3,0,.6-.1.8-.3.2-.2.3-.5.3-.9s-.1-.7-.3-.9c-.2-.2-.5-.4-.8-.4s-.6.1-.9.4c-.2.2-.3.5-.3.9s.1.7.3.9c.2.2.5.3.9.3Z"/>
  <path d="M11.7,5.3s0,.1,0,.4h-3.5c0,.3.2.5.4.7.2.2.5.2.9.2s.5,0,.6-.1c.2,0,.4-.2.5-.3l.7.8c-.4.5-1.1.7-1.9.7s-1-.1-1.4-.3c-.4-.2-.7-.5-.9-.8-.2-.4-.3-.8-.3-1.2s.1-.9.3-1.2c.2-.4.5-.6.9-.8.4-.2.8-.3,1.3-.3s.9,0,1.2.3c.4.2.7.5.9.8.2.4.3.8.3,1.3ZM9.3,3.9c-.3,0-.6,0-.8.3-.2.2-.3.4-.4.7h2.3c0-.3-.2-.5-.4-.7-.2-.2-.5-.3-.8-.3Z"/>
  <path d="M15.4,2.9c.6,0,1,.2,1.4.5.4.3.5.8.5,1.5v2.6h-1.3v-2.4c0-.4,0-.6-.2-.8-.2-.2-.4-.3-.7-.3s-.6.1-.8.3c-.2.2-.3.5-.3.9v2.3h-1.3V3h1.3v.5c.2-.2.4-.3.7-.4.3-.1.5-.2.9-.2Z"/>
  <path d="M18.6,3h1.3v4.6h-1.3V3ZM19.2,2.3c-.2,0-.4,0-.6-.2-.2-.1-.2-.3-.2-.5s0-.4.2-.5c.2-.1.4-.2.6-.2s.4,0,.6.2.2.3.2.5,0,.4-.2.6c-.2.1-.4.2-.6.2Z"/>
  <path d="M22.7,7.7c-.4,0-.8,0-1.1-.1-.4,0-.7-.2-.9-.4l.4-1c.2.1.5.2.7.3.3,0,.6.1.9.1.6,0,.8-.1.8-.4s0-.2-.2-.3c-.2,0-.4-.1-.7-.1-.4,0-.7-.1-.9-.2-.2,0-.5-.2-.6-.4-.2-.2-.3-.5-.3-.8s0-.6.2-.8c.2-.2.4-.4.7-.5.3-.1.7-.2,1.1-.2s.7,0,1,.1c.3,0,.6.2.8.3l-.4,1c-.4-.2-.9-.3-1.3-.3s-.5,0-.6.1c-.1,0-.2.2-.2.3s0,.2.2.3c.2,0,.4.1.7.2.4,0,.7.1.9.2.2,0,.4.2.6.4.2.2.3.5.3.8s0,.5-.3.8c-.2.2-.4.4-.7.5-.3.1-.7.2-1.2.2Z"/>
  <path d="M27.3,7.7c-.4,0-.8,0-1.1-.1-.4,0-.7-.2-.9-.4l.4-1c.2.1.5.2.7.3.3,0,.6.1.9.1.6,0,.8-.1.8-.4s0-.2-.2-.3c-.2,0-.4-.1-.7-.1-.4,0-.7-.1-.9-.2-.2,0-.5-.2-.6-.4-.2-.2-.3-.5-.3-.8s0-.6.2-.8c.2-.2.4-.4.7-.5.3-.1.7-.2,1.1-.2s.7,0,1,.1c.3,0,.6.2.8.3l-.4,1c-.4-.2-.9-.3-1.3-.3s-.5,0-.6.1c-.1,0-.2.2-.2.3s0,.2.2.3c.2,0,.4.1.7.2.4,0,.7.1.9.2.2,0,.4.2.6.4.2.2.3.5.3.8s0,.5-.3.8c-.2.2-.4.4-.7.5-.3.1-.7.2-1.2.2Z"/>
  <path d="M32.5,7.7c-.5,0-.9-.1-1.3-.3-.4-.2-.7-.5-.9-.8-.2-.4-.3-.8-.3-1.2s.1-.9.3-1.2c.2-.4.5-.6.9-.8.4-.2.8-.3,1.3-.3s.9.1,1.3.3c.4.2.7.5.9.8.2.4.3.8.3,1.2s-.1.9-.3,1.2c-.2.4-.5.6-.9.8-.4.2-.8.3-1.3.3ZM32.5,6.6c.3,0,.6-.1.8-.3.2-.2.3-.5.3-.9s-.1-.7-.3-.9c-.2-.2-.5-.4-.8-.4s-.6.1-.8.4c-.2.2-.3.5-.3.9s.1.7.3.9c.2.2.5.3.8.3Z"/>
  <path d="M38.7,2.9c.6,0,1,.2,1.4.5.4.3.5.8.5,1.5v2.6h-1.3v-2.4c0-.4,0-.6-.2-.8-.2-.2-.4-.3-.7-.3s-.6.1-.8.3c-.2.2-.3.5-.3.9v2.3h-1.3V3h1.3v.5c.2-.2.4-.3.7-.4.3-.1.5-.2.9-.2Z"/>
  <path d="M50.7,7.7c-.4,0-.8,0-1.1-.1-.4,0-.7-.2-.9-.4l.4-1c.2.1.5.2.7.3.3,0,.6.1.9.1.6,0,.8-.1.8-.4s0-.2-.2-.3c-.2,0-.4-.1-.7-.1-.4,0-.7-.1-.9-.2-.2,0-.5-.2-.6-.4-.2-.2-.3-.5-.3-.8s0-.6.2-.8c.2-.2.4-.4.7-.5.3-.1.7-.2,1.1-.2s.7,0,1,.1c.3,0,.6.2.8.3l-.4,1c-.4-.2-.9-.3-1.3-.3s-.5,0-.6.1c-.1,0-.2.2-.2.3s0,.2.2.3c.2,0,.4.1.7.2.4,0,.7.1.9.2.2,0,.4.2.6.4.2.2.3.5.3.8s0,.5-.3.8c-.2.2-.4.4-.7.5-.3.1-.7.2-1.2.2Z"/>
  <path d="M55.9,7.7c-.5,0-.9-.1-1.3-.3-.4-.2-.7-.5-.9-.8-.2-.4-.3-.8-.3-1.2s.1-.9.3-1.2c.2-.4.5-.6.9-.8.4-.2.8-.3,1.3-.3s.9.1,1.3.3c.4.2.7.5.9.8.2.4.3.8.3,1.2s-.1.9-.3,1.2c-.2.4-.5.6-.9.8-.4.2-.8.3-1.3.3ZM55.9,6.6c.3,0,.6-.1.8-.3.2-.2.3-.5.3-.9s-.1-.7-.3-.9c-.2-.2-.5-.4-.8-.4s-.6.1-.8.4c-.2.2-.3.5-.3.9s.1.7.3.9c.2.2.5.3.8.3Z"/>
  <path d="M64,3v4.6h-1.3v-.5c-.2.2-.4.4-.6.5-.2.1-.5.2-.8.2-.6,0-1.1-.2-1.4-.5-.4-.3-.5-.9-.5-1.6v-2.6h1.3v2.4c0,.7.3,1.1.9,1.1s.6-.1.8-.3c.2-.2.3-.5.3-.9v-2.3h1.3Z"/>
  <path d="M66.8,7.7c-.4,0-.8,0-1.1-.1-.4,0-.7-.2-.9-.4l.4-1c.2.1.5.2.7.3.3,0,.6.1.9.1.6,0,.8-.1.8-.4s0-.2-.2-.3c-.2,0-.4-.1-.7-.1-.4,0-.7-.1-.9-.2-.2,0-.5-.2-.6-.4-.2-.2-.3-.5-.3-.8s0-.6.2-.8c.2-.2.4-.4.7-.5.3-.1.7-.2,1.1-.2s.7,0,1,.1c.3,0,.6.2.8.3l-.4,1c-.4-.2-.9-.3-1.3-.3s-.5,0-.6.1c-.1,0-.2.2-.2.3s0,.2.2.3c.2,0,.4.1.7.2.4,0,.7.1.9.2.2,0,.4.2.6.4.2.2.3.5.3.8s0,.5-.3.8c-.2.2-.4.4-.7.5-.3.1-.7.2-1.2.2Z"/>
  <path d="M71.7,2.9c.7,0,1.3.2,1.6.5.4.3.6.9.6,1.5v2.6h-1.2v-.6c-.3.4-.7.6-1.4.6s-.7,0-.9-.2c-.3-.1-.5-.3-.6-.5-.1-.2-.2-.5-.2-.7,0-.4.2-.8.5-1s.8-.4,1.5-.4h1.1c0-.3,0-.5-.3-.7-.2-.2-.4-.2-.8-.2s-.5,0-.7.1c-.2,0-.4.2-.6.3l-.5-.9c.3-.2.6-.3.9-.4.4,0,.7-.1,1.1-.1ZM71.6,6.8c.2,0,.4,0,.6-.2.2-.1.3-.3.4-.5v-.5h-.9c-.5,0-.8.2-.8.5s0,.3.2.4c.1,0,.3.1.6.1Z"/>
  <g class="st6">
    <g class="st2">
      <g class="st5">
        <g class="st3">
          <g class="st4">
            <path class="st1" d="M42.7,3.4h3.9v3.9h-3.9v-3.9Z"/>
          </g>
        </g>
      </g>
    </g>
  </g>
</svg>